# xmcd
#
# Track frame offsets: 
#        150
#        18705
#        28978
#        56327
#        69944
#        83017
#        100093
#        110876
#        122750
#
# Disc length: 1880 seconds
#
# Revision: 0
# Processed by: cddbd v1.5.2PL0 Copyright (c) Steve Scherf et al.
# Submitted via: ExactAudioCopy v0.99pb1
#
DISCID=74075609
DTITLE=Dan Hayes and Juke Joint - California
DYEAR=2005
DGENRE=Blues
TTITLE0=Here's Too You
TTITLE1=Money, Love And Time
TTITLE2=California
TTITLE3=That's Why There's The Blues
TTITLE4=Flying Blind
TTITLE5=My Opinion
TTITLE6=Twice As Nice
TTITLE7=One Of A Kind
TTITLE8=Everyone's Grown Up But Me
EXTD=
EXTT0=
EXTT1=
EXTT2=
EXTT3=
EXTT4=
EXTT5=
EXTT6=
EXTT7=
EXTT8=
PLAYORDER=
